PathFileType	4	(X/Y/Z)	C:\Users\dbl\Desktop\LZH\BX\Trimmed_bx_y_5_1801.trc
DataRate	CameraRate	NumFrames	NumMarkers	Units	OrigDataRate	OrigDataStartFrame	OrigNumFrames
50.00	50.00	       4	43	mm	50.00	207	       330
Frame#	Time	Top.Head			R.Acromium			L.Acromium			Sternum			R.ASIS			L.ASIS			V.Sacral			R.Thigh.Upper			R.Thigh.Front			R.Thigh.Rear			R.Knee.Lat			R.Knee.Med			R.Shank.Upper			R.Shank.Front			R.Shank.Rear			R.Ankle.Lat			R.Midfoot.Lat			R.Toe.Lat			R.Toe.Tip			R.Toe.Med			R.Ankle.Med			R.Midfoot.Sup			R.Heel			L.Thigh.Upper			L.Thigh.Front			L.Thigh.Rear			L.Knee.Lat			L.Knee.Med			L.Shank.Upper			L.Shank.Front			L.Shank.Rear			L.Ankle.Lat			L.Midfoot.Lat			L.Toe.Lat			L.Toe.Tip			L.Toe.Med			L.Ankle.Med			L.Midfoot.Sup			L.Heel			origin1 front left			origin2 front right			origin 3 back right			origin 4 back leftt			
		X1	Y1	Z1	X2	Y2	Z2	X3	Y3	Z3	X4	Y4	Z4	X5	Y5	Z5	X6	Y6	Z6	X7	Y7	Z7	X8	Y8	Z8	X9	Y9	Z9	X10	Y10	Z10	X11	Y11	Z11	X12	Y12	Z12	X13	Y13	Z13	X14	Y14	Z14	X15	Y15	Z15	X16	Y16	Z16	X17	Y17	Z17	X18	Y18	Z18	X19	Y19	Z19	X20	Y20	Z20	X21	Y21	Z21	X22	Y22	Z22	X23	Y23	Z23	X24	Y24	Z24	X25	Y25	Z25	X26	Y26	Z26	X27	Y27	Z27	X28	Y28	Z28	X29	Y29	Z29	X30	Y30	Z30	X31	Y31	Z31	X32	Y32	Z32	X33	Y33	Z33	X34	Y34	Z34	X35	Y35	Z35	X36	Y36	Z36	X37	Y37	Z37	X38	Y38	Z38	X39	Y39	Z39	X40	Y40	Z40	X41	Y41	Z41	X42	Y42	Z42	X43	Y43	Z43	

207	4.120	-309.19614	278.88626	1307.52759	-386.76959	69.81232	1096.94299	-402.79285	455.70279	1019.81964	-445.24103	254.81366	1073.23132	-718.58868	160.80618	1031.10535	-699.33411	350.70081	949.61346	-963.13995	274.28973	757.14465	-724.98096	80.79949	730.35876	-668.50092	137.70746	737.57758	-614.96649	37.06108	637.85077	-524.55536	51.12396	542.02277	-488.52063	160.13449	524.50232	-546.55518	58.14919	490.92755	-451.14407	100.23901	513.33014	-605.76050	75.84659	448.27045	-674.29102	148.32602	214.54388	-613.79590	84.08384	169.49484	-569.29785	59.34729	166.02806	-490.50528	95.15978	160.01689	-529.26172	149.54607	164.08904	-619.61517	220.19916	214.12401	-588.71277	192.72043	166.32500	-711.88098	221.56566	175.88293	-698.15125	451.20450	703.76453	-638.95532	385.14420	737.19879	-576.03644	464.92108	624.65887	-505.92432	446.92590	556.81677	-448.02094	336.78534	535.31317	-492.86896	443.55960	515.87830	-439.42865	394.37134	487.57553	-556.55444	437.62103	478.65762	-666.04016	411.65799	210.94171	-581.70728	465.80634	166.53004	-542.73224	474.67215	159.20561	-480.06299	429.56793	163.22902	-522.19574	384.85272	175.54784	-631.04736	322.25803	199.13202	-590.76776	345.04071	163.26216	-730.08508	340.52200	167.12675	-443.75018	448.04852	145.85593	-450.57675	75.75375	144.33691	-806.42041	82.46974	142.99600	-800.54065	456.21738	147.25987	
208	4.140	-312.30606	278.22348	1318.46167	-390.32007	69.76963	1103.36328	-404.31122	455.30469	1029.69971	-446.93329	254.50523	1075.46228	-717.07361	160.50009	1031.82910	-697.78082	351.35425	951.46741	-961.22015	274.15192	762.71210	-723.24152	80.56075	733.63507	-666.47845	137.05081	740.85126	-615.76593	37.85826	640.02081	-524.97327	51.80697	542.62366	-488.72229	160.84929	525.20117	-547.08069	58.70554	491.60410	-451.48157	100.80531	513.57721	-606.16925	76.41528	448.66302	-674.35510	148.43736	214.56850	-613.80243	84.08942	169.52199	-569.28815	59.25315	165.96758	-490.44568	95.15739	160.05296	-529.24585	149.52670	164.08977	-619.71033	220.37341	214.00336	-588.69653	192.72459	166.32457	-711.84717	221.58351	175.87070	-696.75867	450.50644	707.35889	-637.02136	384.92010	740.23309	-576.34680	464.39871	626.91577	-506.37881	445.76639	557.58496	-448.46283	335.74976	535.52496	-493.89996	442.89209	516.72803	-439.92816	393.30844	488.20352	-556.98212	436.60995	479.11835	-666.12512	411.54755	211.31638	-581.68262	465.77133	166.59613	-542.70087	474.61829	159.19632	-480.09195	429.56680	163.23828	-522.18756	384.84805	175.55795	-630.56958	322.44263	198.53951	-590.78009	345.01166	163.20930	-729.97906	340.59161	167.02727	-443.74719	448.13458	145.91164	-450.63068	75.89479	144.11043	-806.47388	82.43704	143.05342	-800.70264	456.09363	147.59184	
209	4.160	-315.85980	277.52975	1330.13843	-393.93225	69.68056	1110.01465	-406.02328	454.97787	1040.36133	-448.66028	254.18849	1077.91345	-715.51563	160.17668	1032.55640	-696.19238	352.01849	953.37598	-959.12555	274.02020	768.54968	-721.29578	80.28719	737.09021	-664.19739	136.35229	744.24597	-616.57428	38.66451	642.24011	-525.27197	52.70609	543.32715	-488.86047	162.03612	526.21960	-547.54626	59.53639	492.32709	-451.77448	101.65324	513.86737	-606.55133	77.17087	449.16208	-674.35919	148.56616	214.53563	-613.79797	84.07911	169.54884	-569.27106	59.17831	165.90825	-490.43018	95.11533	160.09529	-529.23083	149.50696	164.10077	-619.83606	220.51410	213.86768	-588.70850	192.73061	166.33720	-711.89758	221.51265	175.88655	-695.30109	449.78296	711.20587	-635.07294	384.61411	743.32013	-576.69354	463.86414	629.26025	-506.93463	444.55899	558.30579	-448.89606	334.74960	535.84766	-494.83575	442.11533	517.48126	-440.55548	392.37933	488.89136	-557.50781	435.47794	479.51816	-666.27002	411.52890	211.84245	-581.62238	465.74240	166.64252	-542.66650	474.57700	159.19618	-480.12674	429.58478	163.20798	-522.20465	384.84964	175.56500	-630.08887	322.65179	197.88954	-590.80005	345.00095	163.14081	-729.90314	340.72266	166.88297	-443.74142	448.18692	145.93825	-450.63623	75.95856	143.96426	-806.49078	82.45535	143.05283	-800.65289	456.27847	147.53978	
210	4.180	-319.86096	276.77982	1342.48267	-397.60376	69.54324	1116.89392	-407.91583	454.70395	1051.76355	-450.42120	253.86328	1080.58765	-713.91565	159.83582	1033.28613	-694.56989	352.69260	955.33752	-956.85687	273.86755	774.60834	-719.16144	80.04643	740.69159	-661.65833	135.74577	747.56439	-617.38910	39.47840	644.50568	-525.45270	53.79460	544.15125	-488.90683	163.61258	527.32477	-547.94916	60.61783	493.08224	-452.06448	102.77341	514.21136	-606.91443	78.08258	449.76920	-674.29016	148.68347	214.46184	-613.76587	84.03249	169.59299	-569.23126	59.14429	165.83189	-490.46204	95.08223	160.09645	-529.23792	149.50996	164.11324	-619.98248	220.62621	213.78502	-588.74353	192.73294	166.36325	-712.02167	221.37785	175.91705	-693.77557	449.11981	715.32739	-633.14703	384.19934	746.41534	-577.07629	463.31839	631.69110	-507.60226	443.31787	558.96356	-449.36310	333.89877	536.29590	-495.63760	441.21716	518.08905	-441.21976	391.57999	489.54919	-558.12659	434.39917	479.99664	-666.40808	411.55527	212.28490	-581.56116	465.73407	166.64357	-542.64954	474.55225	159.19476	-480.15137	429.64798	163.17987	-522.23779	384.86179	175.56267	-629.77441	322.83841	197.38348	-590.80237	345.02750	163.08913	-729.88428	340.83429	166.75301	-443.74695	448.18973	145.93617	-450.62582	75.96925	143.91550	-806.44067	82.51231	142.97449	-800.29480	456.77673	147.05157	
